<mxfile host="app.diagrams.net" modified="2023-05-04T18:55:27.447Z" agent="Mozilla/5.0 (Windows NT 10.0; Win64; x64; rv:109.0) Gecko/20100101 Firefox/113.0" etag="TUvTXenywihUpyg0v-s1" version="21.2.7" type="device">
  <diagram name="Page-1" id="kaoYOqhvuLUMERpKKi9R">
    <mxGraphModel dx="2901" dy="1106" grid="1" gridSize="10" guides="1" tooltips="1" connect="1" arrows="1" fold="1" page="1" pageScale="1" pageWidth="827" pageHeight="1169" math="0" shadow="0">
      <root>
        <mxCell id="0" />
        <mxCell id="1" parent="0" />
        <mxCell id="nbuKAx14hnnJjGoASSkc-46" style="edgeStyle=orthogonalEdgeStyle;rounded=0;orthogonalLoop=1;jettySize=auto;html=1;exitX=0.5;exitY=1;exitDx=0;exitDy=0;entryX=0.5;entryY=0;entryDx=0;entryDy=0;endArrow=none;endFill=0;" parent="1" source="nbuKAx14hnnJjGoASSkc-1" target="nbuKAx14hnnJjGoASSkc-16" edge="1">
          <mxGeometry relative="1" as="geometry" />
        </mxCell>
        <mxCell id="nbuKAx14hnnJjGoASSkc-1" value="Clients" style="swimlane;fontStyle=1;align=center;verticalAlign=top;childLayout=stackLayout;horizontal=1;startSize=26;horizontalStack=0;resizeParent=1;resizeParentMax=0;resizeLast=0;collapsible=1;marginBottom=0;whiteSpace=wrap;html=1;" parent="1" vertex="1">
          <mxGeometry x="249" y="118" width="330" height="160" as="geometry" />
        </mxCell>
        <mxCell id="nbuKAx14hnnJjGoASSkc-2" value="&lt;div&gt;+ id : int&lt;br&gt;&lt;/div&gt;&lt;div&gt;+ nom : string&lt;/div&gt;&lt;div&gt;+ prenom : string&lt;/div&gt;&lt;div&gt;+ email : string&lt;/div&gt;&lt;div&gt;+ mot_de_passe : string&lt;/div&gt;&lt;div&gt;+ telephone : string&lt;br&gt;&lt;/div&gt;&lt;div&gt;&lt;br&gt;&lt;/div&gt;" style="text;strokeColor=none;fillColor=none;align=left;verticalAlign=top;spacingLeft=4;spacingRight=4;overflow=hidden;rotatable=0;points=[[0,0.5],[1,0.5]];portConstraint=eastwest;whiteSpace=wrap;html=1;" parent="nbuKAx14hnnJjGoASSkc-1" vertex="1">
          <mxGeometry y="26" width="330" height="94" as="geometry" />
        </mxCell>
        <mxCell id="nbuKAx14hnnJjGoASSkc-3" value="" style="line;strokeWidth=1;fillColor=none;align=left;verticalAlign=middle;spacingTop=-1;spacingLeft=3;spacingRight=3;rotatable=0;labelPosition=right;points=[];portConstraint=eastwest;strokeColor=inherit;" parent="nbuKAx14hnnJjGoASSkc-1" vertex="1">
          <mxGeometry y="120" width="330" height="8" as="geometry" />
        </mxCell>
        <mxCell id="nbuKAx14hnnJjGoASSkc-4" value="&lt;div&gt;+ reinitialiserMotDePasse(id_client, code_de_verification)&lt;/div&gt;" style="text;strokeColor=none;fillColor=none;align=left;verticalAlign=top;spacingLeft=4;spacingRight=4;overflow=hidden;rotatable=0;points=[[0,0.5],[1,0.5]];portConstraint=eastwest;whiteSpace=wrap;html=1;" parent="nbuKAx14hnnJjGoASSkc-1" vertex="1">
          <mxGeometry y="128" width="330" height="32" as="geometry" />
        </mxCell>
        <mxCell id="nbuKAx14hnnJjGoASSkc-49" style="edgeStyle=orthogonalEdgeStyle;rounded=0;orthogonalLoop=1;jettySize=auto;html=1;exitX=0.5;exitY=0;exitDx=0;exitDy=0;entryX=0;entryY=0.5;entryDx=0;entryDy=0;endArrow=none;endFill=0;" parent="1" source="nbuKAx14hnnJjGoASSkc-12" target="nbuKAx14hnnJjGoASSkc-2" edge="1">
          <mxGeometry relative="1" as="geometry" />
        </mxCell>
        <mxCell id="nbuKAx14hnnJjGoASSkc-12" value="Adresses" style="swimlane;fontStyle=1;align=center;verticalAlign=top;childLayout=stackLayout;horizontal=1;startSize=26;horizontalStack=0;resizeParent=1;resizeParentMax=0;resizeLast=0;collapsible=1;marginBottom=0;whiteSpace=wrap;html=1;" parent="1" vertex="1">
          <mxGeometry x="-490" y="358" width="440" height="190" as="geometry" />
        </mxCell>
        <mxCell id="nbuKAx14hnnJjGoASSkc-13" value="&lt;div&gt;+ id : int&lt;/div&gt;&lt;div&gt;+ id_client : int&lt;br&gt;&lt;/div&gt;&lt;div&gt;+ numero : string&lt;/div&gt;&lt;div&gt;+ adresse : string&lt;/div&gt;&lt;div&gt;+ adresse_complement : string&lt;/div&gt;&lt;div&gt;+ code_postal : int&lt;br&gt;&lt;/div&gt;&lt;div&gt;+ ville : string&lt;/div&gt;&lt;div&gt;+ type : boolean (0 : livraison, 1 : facturation)&lt;/div&gt;&lt;div&gt;&lt;br&gt;&lt;/div&gt;" style="text;strokeColor=none;fillColor=none;align=left;verticalAlign=top;spacingLeft=4;spacingRight=4;overflow=hidden;rotatable=0;points=[[0,0.5],[1,0.5]];portConstraint=eastwest;whiteSpace=wrap;html=1;" parent="nbuKAx14hnnJjGoASSkc-12" vertex="1">
          <mxGeometry y="26" width="440" height="124" as="geometry" />
        </mxCell>
        <mxCell id="nbuKAx14hnnJjGoASSkc-14" value="" style="line;strokeWidth=1;fillColor=none;align=left;verticalAlign=middle;spacingTop=-1;spacingLeft=3;spacingRight=3;rotatable=0;labelPosition=right;points=[];portConstraint=eastwest;strokeColor=inherit;" parent="nbuKAx14hnnJjGoASSkc-12" vertex="1">
          <mxGeometry y="150" width="440" height="8" as="geometry" />
        </mxCell>
        <mxCell id="nbuKAx14hnnJjGoASSkc-15" value="+ adresseLisible(numero, adresse, adresse_complement, code_postal, ville)" style="text;strokeColor=none;fillColor=none;align=left;verticalAlign=top;spacingLeft=4;spacingRight=4;overflow=hidden;rotatable=0;points=[[0,0.5],[1,0.5]];portConstraint=eastwest;whiteSpace=wrap;html=1;" parent="nbuKAx14hnnJjGoASSkc-12" vertex="1">
          <mxGeometry y="158" width="440" height="32" as="geometry" />
        </mxCell>
        <mxCell id="nbuKAx14hnnJjGoASSkc-47" style="edgeStyle=orthogonalEdgeStyle;rounded=0;orthogonalLoop=1;jettySize=auto;html=1;exitX=0.5;exitY=1;exitDx=0;exitDy=0;entryX=0.5;entryY=0;entryDx=0;entryDy=0;endArrow=none;endFill=0;" parent="1" source="nbuKAx14hnnJjGoASSkc-16" target="nbuKAx14hnnJjGoASSkc-20" edge="1">
          <mxGeometry relative="1" as="geometry" />
        </mxCell>
        <mxCell id="nbuKAx14hnnJjGoASSkc-16" value="Commandes" style="swimlane;fontStyle=1;align=center;verticalAlign=top;childLayout=stackLayout;horizontal=1;startSize=26;horizontalStack=0;resizeParent=1;resizeParentMax=0;resizeLast=0;collapsible=1;marginBottom=0;whiteSpace=wrap;html=1;" parent="1" vertex="1">
          <mxGeometry x="94" y="358" width="640" height="190" as="geometry" />
        </mxCell>
        <mxCell id="nbuKAx14hnnJjGoASSkc-17" value="&lt;div&gt;+ id : int&lt;/div&gt;&lt;div&gt;+ id_client : int&lt;/div&gt;&lt;div&gt;+ id_livreur : int&lt;/div&gt;&lt;div&gt;+ id_adresse : int&lt;br&gt;&lt;/div&gt;&lt;div&gt;+ dateCommander : date&lt;br&gt;&lt;/div&gt;&lt;div&gt;+ statut : int (0 : en attente de paiement, 1 : en attente d&#39;un livreur, 2 : en cours de livraison, 3 : terminée, 4 : annulée)&lt;/div&gt;&lt;div&gt;&lt;br&gt;&lt;/div&gt;" style="text;strokeColor=none;fillColor=none;align=left;verticalAlign=top;spacingLeft=4;spacingRight=4;overflow=hidden;rotatable=0;points=[[0,0.5],[1,0.5]];portConstraint=eastwest;whiteSpace=wrap;html=1;" parent="nbuKAx14hnnJjGoASSkc-16" vertex="1">
          <mxGeometry y="26" width="640" height="94" as="geometry" />
        </mxCell>
        <mxCell id="nbuKAx14hnnJjGoASSkc-18" value="" style="line;strokeWidth=1;fillColor=none;align=left;verticalAlign=middle;spacingTop=-1;spacingLeft=3;spacingRight=3;rotatable=0;labelPosition=right;points=[];portConstraint=eastwest;strokeColor=inherit;" parent="nbuKAx14hnnJjGoASSkc-16" vertex="1">
          <mxGeometry y="120" width="640" height="8" as="geometry" />
        </mxCell>
        <mxCell id="nbuKAx14hnnJjGoASSkc-19" value="&lt;div&gt;+ creerCommande(id_client, id_adresse)&lt;/div&gt;&lt;div&gt;+ accepterCommande(id_commande, id_livreur)&lt;br&gt;&lt;/div&gt;&lt;div&gt;+ annulerCommande(id_commande)&lt;br&gt;&lt;/div&gt;" style="text;strokeColor=none;fillColor=none;align=left;verticalAlign=top;spacingLeft=4;spacingRight=4;overflow=hidden;rotatable=0;points=[[0,0.5],[1,0.5]];portConstraint=eastwest;whiteSpace=wrap;html=1;" parent="nbuKAx14hnnJjGoASSkc-16" vertex="1">
          <mxGeometry y="128" width="640" height="62" as="geometry" />
        </mxCell>
        <mxCell id="nbuKAx14hnnJjGoASSkc-20" value="Livreurs" style="swimlane;fontStyle=1;align=center;verticalAlign=top;childLayout=stackLayout;horizontal=1;startSize=26;horizontalStack=0;resizeParent=1;resizeParentMax=0;resizeLast=0;collapsible=1;marginBottom=0;whiteSpace=wrap;html=1;" parent="1" vertex="1">
          <mxGeometry x="249" y="640" width="330" height="220" as="geometry" />
        </mxCell>
        <mxCell id="nbuKAx14hnnJjGoASSkc-21" value="&lt;div&gt;+ id : int&lt;br&gt;&lt;/div&gt;&lt;div&gt;+ nom : string&lt;/div&gt;&lt;div&gt;+ prenom : string&lt;/div&gt;&lt;div&gt;+ email : string&lt;/div&gt;&lt;div&gt;+ mot_de_passe : string&lt;/div&gt;&lt;div&gt;+ telephone : string&lt;/div&gt;&lt;div&gt;+ latitude : float&lt;br&gt;&lt;/div&gt;&lt;div&gt;+ longitude : float&lt;br&gt;&lt;/div&gt;&lt;div&gt;+ etat : boolean (0 : indisponible, 1 : disponible)&lt;/div&gt;&lt;div&gt;&lt;br&gt;&lt;/div&gt;" style="text;strokeColor=none;fillColor=none;align=left;verticalAlign=top;spacingLeft=4;spacingRight=4;overflow=hidden;rotatable=0;points=[[0,0.5],[1,0.5]];portConstraint=eastwest;whiteSpace=wrap;html=1;" parent="nbuKAx14hnnJjGoASSkc-20" vertex="1">
          <mxGeometry y="26" width="330" height="144" as="geometry" />
        </mxCell>
        <mxCell id="nbuKAx14hnnJjGoASSkc-22" value="" style="line;strokeWidth=1;fillColor=none;align=left;verticalAlign=middle;spacingTop=-1;spacingLeft=3;spacingRight=3;rotatable=0;labelPosition=right;points=[];portConstraint=eastwest;strokeColor=inherit;" parent="nbuKAx14hnnJjGoASSkc-20" vertex="1">
          <mxGeometry y="170" width="330" height="8" as="geometry" />
        </mxCell>
        <mxCell id="nbuKAx14hnnJjGoASSkc-23" value="&lt;div&gt;+ reinitialiserMotDePasse(id_livreur, code_de_verification)&lt;/div&gt;&lt;div&gt;+ changerEtat(id_livreur, etat)&lt;br&gt;&lt;/div&gt;" style="text;strokeColor=none;fillColor=none;align=left;verticalAlign=top;spacingLeft=4;spacingRight=4;overflow=hidden;rotatable=0;points=[[0,0.5],[1,0.5]];portConstraint=eastwest;whiteSpace=wrap;html=1;" parent="nbuKAx14hnnJjGoASSkc-20" vertex="1">
          <mxGeometry y="178" width="330" height="42" as="geometry" />
        </mxCell>
        <mxCell id="nbuKAx14hnnJjGoASSkc-48" style="edgeStyle=orthogonalEdgeStyle;rounded=0;orthogonalLoop=1;jettySize=auto;html=1;exitX=0.5;exitY=0;exitDx=0;exitDy=0;endArrow=none;endFill=0;dashed=1;" parent="1" source="nbuKAx14hnnJjGoASSkc-24" edge="1">
          <mxGeometry relative="1" as="geometry">
            <mxPoint x="835" y="430" as="targetPoint" />
          </mxGeometry>
        </mxCell>
        <mxCell id="nbuKAx14hnnJjGoASSkc-24" value="Commandes_produits" style="swimlane;fontStyle=1;align=center;verticalAlign=top;childLayout=stackLayout;horizontal=1;startSize=26;horizontalStack=0;resizeParent=1;resizeParentMax=0;resizeLast=0;collapsible=1;marginBottom=0;whiteSpace=wrap;html=1;" parent="1" vertex="1">
          <mxGeometry x="650" y="610" width="370" height="170" as="geometry" />
        </mxCell>
        <mxCell id="nbuKAx14hnnJjGoASSkc-25" value="&lt;div&gt;+ id : int&lt;/div&gt;&lt;div&gt;+ id_commande : int&lt;/div&gt;&lt;div&gt;+ id_produit : int&lt;/div&gt;&lt;div&gt;+ quantite : int&lt;/div&gt;&lt;div&gt;&lt;br&gt;&lt;/div&gt;" style="text;strokeColor=none;fillColor=none;align=left;verticalAlign=top;spacingLeft=4;spacingRight=4;overflow=hidden;rotatable=0;points=[[0,0.5],[1,0.5]];portConstraint=eastwest;whiteSpace=wrap;html=1;" parent="nbuKAx14hnnJjGoASSkc-24" vertex="1">
          <mxGeometry y="26" width="370" height="74" as="geometry" />
        </mxCell>
        <mxCell id="nbuKAx14hnnJjGoASSkc-26" value="" style="line;strokeWidth=1;fillColor=none;align=left;verticalAlign=middle;spacingTop=-1;spacingLeft=3;spacingRight=3;rotatable=0;labelPosition=right;points=[];portConstraint=eastwest;strokeColor=inherit;" parent="nbuKAx14hnnJjGoASSkc-24" vertex="1">
          <mxGeometry y="100" width="370" height="8" as="geometry" />
        </mxCell>
        <mxCell id="nbuKAx14hnnJjGoASSkc-27" value="&lt;div&gt;+ ajouterProduitsCommande(id_commande, id_produit, quantite)&lt;/div&gt;&lt;div&gt;+ supprimerProduitsCommande(id_commande_produit)&lt;/div&gt;&lt;div&gt;+ changerQuantite(id_commande_produit, quantite)&lt;br&gt;&lt;/div&gt;" style="text;strokeColor=none;fillColor=none;align=left;verticalAlign=top;spacingLeft=4;spacingRight=4;overflow=hidden;rotatable=0;points=[[0,0.5],[1,0.5]];portConstraint=eastwest;whiteSpace=wrap;html=1;" parent="nbuKAx14hnnJjGoASSkc-24" vertex="1">
          <mxGeometry y="108" width="370" height="62" as="geometry" />
        </mxCell>
        <mxCell id="nbuKAx14hnnJjGoASSkc-28" value="produits" style="swimlane;fontStyle=1;align=center;verticalAlign=top;childLayout=stackLayout;horizontal=1;startSize=26;horizontalStack=0;resizeParent=1;resizeParentMax=0;resizeLast=0;collapsible=1;marginBottom=0;whiteSpace=wrap;html=1;" parent="1" vertex="1">
          <mxGeometry x="1040" y="343" width="320" height="220" as="geometry" />
        </mxCell>
        <mxCell id="nbuKAx14hnnJjGoASSkc-29" value="&lt;div&gt;+ id : int&lt;/div&gt;&lt;div&gt;+ nom : string&lt;/div&gt;&lt;div&gt;+ description : string&lt;/div&gt;&lt;div&gt;+ illustration : string&lt;/div&gt;&lt;div&gt;+ prix : float&lt;/div&gt;&lt;div&gt;+ type : boolean (0 : plats, 1 : desserts)&lt;br&gt;&lt;/div&gt;&lt;div&gt;+ etat : boolean (0 : indisponible, 1 : plat du jour)&lt;/div&gt;&lt;div&gt;&lt;br&gt;&lt;/div&gt;" style="text;strokeColor=none;fillColor=none;align=left;verticalAlign=top;spacingLeft=4;spacingRight=4;overflow=hidden;rotatable=0;points=[[0,0.5],[1,0.5]];portConstraint=eastwest;whiteSpace=wrap;html=1;" parent="nbuKAx14hnnJjGoASSkc-28" vertex="1">
          <mxGeometry y="26" width="320" height="114" as="geometry" />
        </mxCell>
        <mxCell id="nbuKAx14hnnJjGoASSkc-30" value="" style="line;strokeWidth=1;fillColor=none;align=left;verticalAlign=middle;spacingTop=-1;spacingLeft=3;spacingRight=3;rotatable=0;labelPosition=right;points=[];portConstraint=eastwest;strokeColor=inherit;" parent="nbuKAx14hnnJjGoASSkc-28" vertex="1">
          <mxGeometry y="140" width="320" height="8" as="geometry" />
        </mxCell>
        <mxCell id="nbuKAx14hnnJjGoASSkc-31" value="&lt;div&gt;+ ajouterProduit(nom, description, illustration, prix, type)&lt;/div&gt;&lt;div&gt;+ supprimerProduit(id_produit)&lt;/div&gt;&lt;div&gt;+ ajouterPlatDuJour(id_produit)&lt;/div&gt;&lt;div&gt;+ supprimerPlatDuJour(id_produit)&lt;br&gt;&lt;/div&gt;" style="text;strokeColor=none;fillColor=none;align=left;verticalAlign=top;spacingLeft=4;spacingRight=4;overflow=hidden;rotatable=0;points=[[0,0.5],[1,0.5]];portConstraint=eastwest;whiteSpace=wrap;html=1;" parent="nbuKAx14hnnJjGoASSkc-28" vertex="1">
          <mxGeometry y="148" width="320" height="72" as="geometry" />
        </mxCell>
        <mxCell id="nbuKAx14hnnJjGoASSkc-40" style="edgeStyle=orthogonalEdgeStyle;rounded=0;orthogonalLoop=1;jettySize=auto;html=1;exitX=1;exitY=0.5;exitDx=0;exitDy=0;entryX=-0.003;entryY=0.655;entryDx=0;entryDy=0;entryPerimeter=0;endArrow=none;endFill=0;" parent="1" source="nbuKAx14hnnJjGoASSkc-13" target="nbuKAx14hnnJjGoASSkc-17" edge="1">
          <mxGeometry relative="1" as="geometry" />
        </mxCell>
        <mxCell id="nbuKAx14hnnJjGoASSkc-42" style="edgeStyle=orthogonalEdgeStyle;rounded=0;orthogonalLoop=1;jettySize=auto;html=1;exitX=1;exitY=0.5;exitDx=0;exitDy=0;entryX=-0.001;entryY=0.55;entryDx=0;entryDy=0;entryPerimeter=0;endArrow=none;endFill=0;" parent="1" source="nbuKAx14hnnJjGoASSkc-17" target="nbuKAx14hnnJjGoASSkc-29" edge="1">
          <mxGeometry relative="1" as="geometry" />
        </mxCell>
        <mxCell id="nbuKAx14hnnJjGoASSkc-50" value="1" style="text;html=1;align=center;verticalAlign=middle;resizable=0;points=[];autosize=1;strokeColor=none;fillColor=none;" parent="1" vertex="1">
          <mxGeometry x="-50" y="420" width="30" height="30" as="geometry" />
        </mxCell>
        <mxCell id="nbuKAx14hnnJjGoASSkc-51" value="*" style="text;html=1;align=center;verticalAlign=middle;resizable=0;points=[];autosize=1;strokeColor=none;fillColor=none;" parent="1" vertex="1">
          <mxGeometry x="59" y="420" width="30" height="30" as="geometry" />
        </mxCell>
        <mxCell id="nbuKAx14hnnJjGoASSkc-52" value="*" style="text;html=1;align=center;verticalAlign=middle;resizable=0;points=[];autosize=1;strokeColor=none;fillColor=none;" parent="1" vertex="1">
          <mxGeometry x="-270" y="328" width="30" height="30" as="geometry" />
        </mxCell>
        <mxCell id="nbuKAx14hnnJjGoASSkc-53" value="1" style="text;html=1;align=center;verticalAlign=middle;resizable=0;points=[];autosize=1;strokeColor=none;fillColor=none;" parent="1" vertex="1">
          <mxGeometry x="219" y="190" width="30" height="30" as="geometry" />
        </mxCell>
        <mxCell id="nbuKAx14hnnJjGoASSkc-54" value="1" style="text;html=1;align=center;verticalAlign=middle;resizable=0;points=[];autosize=1;strokeColor=none;fillColor=none;" parent="1" vertex="1">
          <mxGeometry x="410" y="270" width="30" height="30" as="geometry" />
        </mxCell>
        <mxCell id="nbuKAx14hnnJjGoASSkc-55" value="*" style="text;html=1;align=center;verticalAlign=middle;resizable=0;points=[];autosize=1;strokeColor=none;fillColor=none;" parent="1" vertex="1">
          <mxGeometry x="410" y="328" width="30" height="30" as="geometry" />
        </mxCell>
        <mxCell id="nbuKAx14hnnJjGoASSkc-56" value="1" style="text;html=1;align=center;verticalAlign=middle;resizable=0;points=[];autosize=1;strokeColor=none;fillColor=none;" parent="1" vertex="1">
          <mxGeometry x="410" y="610" width="30" height="30" as="geometry" />
        </mxCell>
        <mxCell id="nbuKAx14hnnJjGoASSkc-57" value="*" style="text;html=1;align=center;verticalAlign=middle;resizable=0;points=[];autosize=1;strokeColor=none;fillColor=none;" parent="1" vertex="1">
          <mxGeometry x="410" y="548" width="30" height="30" as="geometry" />
        </mxCell>
        <mxCell id="nbuKAx14hnnJjGoASSkc-58" value="*" style="text;html=1;align=center;verticalAlign=middle;resizable=0;points=[];autosize=1;strokeColor=none;fillColor=none;" parent="1" vertex="1">
          <mxGeometry x="1010" y="400" width="30" height="30" as="geometry" />
        </mxCell>
        <mxCell id="nbuKAx14hnnJjGoASSkc-59" value="*" style="text;html=1;align=center;verticalAlign=middle;resizable=0;points=[];autosize=1;strokeColor=none;fillColor=none;" parent="1" vertex="1">
          <mxGeometry x="734" y="400" width="30" height="30" as="geometry" />
        </mxCell>
      </root>
    </mxGraphModel>
  </diagram>
</mxfile>
